<?xml version="1.0" encoding="UTF-8" standalone="no" ?>
<!DOCTYPE svg PUBLIC "-//W3C//DTD SVG 1.1//EN" "http://www.w3.org/Graphics/SVG/1.1/DTD/svg11.dtd">
<svg xmlns="http://www.w3.org/2000/svg" xmlns:xlink="http://www.w3.org/1999/xlink" version="1.1" width="1080" height="1080" viewBox="0 0 1080 1080" xml:space="preserve">
<desc>Created with Fabric.js 5.2.4</desc>
<defs>
</defs>
<g transform="matrix(1 0 0 1 540 540)" id="c6178c2f-7d90-49d8-9bf1-49cba211f08b"  >
<rect style="stroke: none; stroke-width: 1; stroke-dasharray: none; stroke-linecap: butt; stroke-dashoffset: 0; stroke-linejoin: miter; stroke-miterlimit: 4; fill: rgb(255,255,255); fill-rule: nonzero; opacity: 1; visibility: hidden;" vector-effect="non-scaling-stroke"  x="-540" y="-540" rx="0" ry="0" width="1080" height="1080" />
</g>
<g transform="matrix(1 0 0 1 540 540)" id="8e9a4783-a260-4013-b71e-ad35f27c8296"  >
</g>
<g transform="matrix(44.71 0 0 44.71 540.98 540.98)" id="8144f336-944b-4c63-8eaa-f895d33e89a7"  >
<path style="stroke: rgb(0,0,0); stroke-width: 0; stroke-dasharray: none; stroke-linecap: butt; stroke-dashoffset: 0; stroke-linejoin: miter; stroke-miterlimit: 4; fill: rgb(215,212,212); fill-rule: nonzero; opacity: 1;" vector-effect="non-scaling-stroke"  transform=" translate(-12, -12)" d="M 12 0 C 5.375 0 0 5.375 0 12 C 0 18.627 5.375 24 12 24 C 18.626 24 24 18.627 24 12 C 24 5.375 18.627 0 12 0 z M 11.376 21.62 L 11.376 14.092000000000002 L 7.19 14.092000000000002 L 13.203 2.38 L 13.203 9.908 L 17.232 9.908 L 11.376 21.62 z" stroke-linecap="round" />
</g>
</svg>